<svg width="25" height="25" viewBox="0 0 32 32" fill="none" xmlns="http://www.w3.org/2000/svg"><path d="M23.6 29.333H8.4c-1.6 0-3.067-.666-4.267-1.866a5.906 5.906 0 01-1.466-4.4l1.866-15.2c.267-2.934 2.667-5.2 5.6-5.2h11.734c2.933 0 5.466 2.266 5.733 5.2l1.733 15.2c.134 1.6-.4 3.2-1.466 4.4-1.067 1.2-2.667 1.866-4.267 1.866zm-13.467-24c-1.6 0-2.8 1.2-2.933 2.8l-1.867 15.2c-.133.8.267 1.6.8 2.267.534.667 1.334.933 2.267.933h15.333c.8 0 1.6-.4 2.267-.933.533-.667.8-1.467.8-2.267l-2-15.2c-.133-1.6-1.333-2.8-2.933-2.8H10.133z" fill="#fff"></path><path d="M16 15.2c-3.733 0-6.8-3.067-6.8-6.8 0-.8.534-1.333 1.334-1.333s1.333.533 1.333 1.333c0 2.267 1.866 4.133 4.133 4.133s4.134-1.866 4.134-4.133c0-.8.533-1.333 1.333-1.333.8 0 1.333.533 1.333 1.333 0 3.733-3.067 6.8-6.8 6.8z" fill="#fff"></path></svg>